HIERARCHY
ROOT hip
{
	OFFSET 0.000000 0.000000 0.000000 
	CHANNELS 6 Xposition Yposition Zposition Xrotation Zrotation Yrotation
	JOINT abdomen
	{
		OFFSET 0.000000 3.402643 0.000000 
		CHANNELS 3 Xrotation Zrotation Yrotation
		JOINT chest
		{
			OFFSET 0.000000 8.438565 -0.680529 
			CHANNELS 3 Xrotation Zrotation Yrotation
			JOINT neck
			{
				OFFSET 0.000000 10.207942 -0.272212 
				CHANNELS 3 Xrotation Zrotation Yrotation
				JOINT head
				{
					OFFSET 0.000000 3.130431 0.000000 
					CHANNELS 3 Xrotation Zrotation Yrotation
					End Site
					{
						OFFSET 0.000000 3.130435 0.000000 
					}
				}
			}
			JOINT lCollar
			{
				OFFSET 3.470700 6.669187 -0.816635 
				CHANNELS 3 Yrotation Zrotation Xrotation
				JOINT lShldr
				{
					OFFSET 3.198488 0.000000 0.000000 
					CHANNELS 3 Zrotation Yrotation Xrotation
					JOINT lForeArm
					{
						OFFSET 10.139888 0.000000 0.000000 
						CHANNELS 3 Yrotation Zrotation Xrotation
						JOINT lHand
						{
							OFFSET 8.370511 0.000000 0.000000 
							CHANNELS 3 Zrotation Yrotation Xrotation
							End Site
							{
								OFFSET 4.083176 0.000000 0.000000 
							}
						}
					}
				}
			}
			JOINT rCollar
			{
				OFFSET -3.470700 6.669187 -0.816635 
				CHANNELS 3 Yrotation Zrotation Xrotation
				JOINT rShldr
				{
					OFFSET -3.198488 0.000000 0.000000 
					CHANNELS 3 Zrotation Yrotation Xrotation
					JOINT rForeArm
					{
						OFFSET -10.139888 0.000000 0.000000 
						CHANNELS 3 Yrotation Zrotation Xrotation
						JOINT rHand
						{
							OFFSET -8.370511 0.000000 0.000000 
							CHANNELS 3 Zrotation Yrotation Xrotation
							End Site
							{
								OFFSET -4.083176 0.000000 0.000000 
							}
						}
					}
				}
			}
		}
	}
	JOINT lThigh
	{
		OFFSET 5.308129 -1.633274 1.361059 
		CHANNELS 3 Xrotation Zrotation Yrotation
		JOINT lShin
		{
			OFFSET -2.041588 -20.007561 0.000000 
			CHANNELS 3 Xrotation Zrotation Yrotation
			JOINT lFoot
			{
				OFFSET 0.000000 -19.190928 -1.224953 
				CHANNELS 3 Xrotation Yrotation Zrotation
				End Site
				{
					OFFSET 0.000000 -2.449906 4.627600 
				}
			}
		}
	}
	JOINT rThigh
	{
		OFFSET -5.308129 -1.633274 1.361059 
		CHANNELS 3 Xrotation Zrotation Yrotation
		JOINT rShin
		{
			OFFSET 2.041588 -20.007561 0.000000 
			CHANNELS 3 Xrotation Zrotation Yrotation
			JOINT rFoot
			{
				OFFSET 0.000000 -19.190928 -1.224953 
				CHANNELS 3 Xrotation Yrotation Zrotation
				End Site
				{
					OFFSET 0.000000 -2.449906 4.627600 
				}
			}
		}
	}
}
MOTION
Frames: 16
Frame Time: 0.011111
25.420504 51.446297 21.656679 -6.677076 8.023572 -130.366638 18.638866 3.772164 -8.153141 -20.837444 -0.617466 -2.622367 -13.770104 7.606279 8.259730 27.141075 -17.159386 14.042063 -13.725516 -13.189672 -3.762996 -42.526474 -47.865898 15.331700 -82.986809 4.725665 24.529701 8.524705 12.647240 29.117783 8.354301 9.292459 -1.514610 63.648888 18.902414 47.606293 87.444084 -3.297998 33.022961 -8.534408 -12.637552 21.341654 -27.971989 16.098967 5.413593 31.331474 -5.254820 -5.040939 -20.256269 2.448658 -1.806119 -9.899416 -19.484823 -6.259839 35.891087 4.944661 5.580471 -27.928507 -12.094693 -3.553491 
25.690216 51.382145 21.524857 -6.588699 8.741141 -128.732498 18.132824 4.122545 -8.454473 -20.856878 -0.677630 -2.739010 -13.931885 7.645622 8.103920 26.873728 -16.919754 13.913515 -13.725516 -13.189672 -3.762996 -40.590317 -49.963242 13.009581 -81.776352 5.531373 23.628365 8.524705 12.647240 29.576769 8.354301 9.292459 -1.514610 64.371567 20.451496 49.565956 87.095634 -2.804402 32.563412 -8.534408 -12.637552 19.993999 -29.674398 16.345507 4.368545 31.899248 -5.225784 -5.112849 -19.949175 1.757134 -2.088563 -9.577086 -18.898420 -6.619690 35.613693 4.960700 5.541088 -28.158827 -12.147024 -3.645938 
25.977800 51.318626 21.372286 -6.202735 9.365759 -127.279274 17.978945 4.518438 -8.447665 -21.003223 -0.645811 -2.766887 -14.040204 7.464326 7.947032 26.565281 -16.370962 13.761546 -13.725516 -13.189672 -3.762996 -38.693958 -51.957397 10.741296 -80.454033 6.259828 22.750954 8.524705 12.647240 29.703718 8.354301 9.292459 -1.514610 65.111931 21.905855 51.378014 86.836868 -2.386751 32.133350 -8.534408 -12.637552 19.027203 -31.091663 16.805422 3.379807 32.417759 -5.196594 -5.160791 -19.636295 1.383598 -2.245154 -8.963404 -17.974154 -7.018011 35.226490 4.989471 5.486907 -28.775055 -11.735311 -3.693670 
26.316454 51.272343 21.136410 -5.727060 9.827634 -126.768478 18.074907 4.282500 -7.755156 -20.915884 -0.142136 -2.566127 -14.295821 7.211989 7.694150 26.071600 -15.861605 13.445998 -13.725516 -13.189672 -3.762996 -36.677639 -54.197739 8.106304 -78.952454 6.953060 21.837805 8.524705 12.647240 29.645128 8.354301 9.292459 -1.514610 65.740135 23.730843 53.021221 86.653130 -2.055374 31.739620 -8.534408 -12.637552 18.538921 -31.899866 17.839048 3.167037 32.717690 -5.167070 -5.208750 -19.305294 1.286070 -2.315303 -8.465233 -16.743870 -6.826522 34.868279 5.013479 5.462148 -29.465317 -11.059568 -3.638917 
26.632769 51.201805 20.938194 -5.397263 10.402977 -125.899223 17.918226 4.222756 -7.226186 -20.652643 0.055541 -2.420653 -14.841236 7.237527 7.373914 25.870472 -15.624224 13.024664 -13.725516 -13.189672 -3.762996 -34.243019 -56.599503 5.188252 -77.313927 7.568614 20.886480 8.524705 12.647240 29.742783 8.354301 9.292459 -1.514610 66.529259 25.908619 54.394321 86.519409 -1.788991 31.362934 -8.534408 -12.637552 18.617044 -33.348644 18.544527 2.426464 33.363987 -5.133587 -5.285842 -19.052650 1.036035 -2.417740 -8.170979 -15.734212 -7.406090 34.560085 5.038871 5.412937 -30.345058 -10.936913 -3.884251 
26.936634 51.107327 20.706467 -4.992366 10.900191 -125.387627 17.808390 4.043641 -6.439262 -20.496592 0.140151 -2.195831 -15.267608 7.237315 7.121076 25.785698 -15.128096 12.748549 -13.725516 -13.189672 -3.762996 -31.661930 -58.745083 2.203725 -75.691483 8.069020 19.994379 8.524705 12.647240 29.723251 8.354301 9.292459 -1.514610 67.774681 27.950653 55.332451 86.410316 -1.551828 30.955999 -8.534408 -12.637552 18.929546 -34.554611 19.625395 2.215847 34.041321 -5.085115 -5.361051 -18.856318 0.416386 -2.666927 -7.927204 -14.748544 -8.203439 34.371948 5.048357 5.379853 -31.291811 -11.051544 -4.268211 
27.198366 50.999119 20.554853 -4.559623 11.334541 -124.146912 17.799868 4.241028 -6.048495 -20.681908 0.006354 -2.098291 -15.471487 7.200805 6.838212 25.667408 -14.546114 12.387838 -13.725516 -13.189672 -3.762996 -29.238291 -60.587830 -0.493918 -74.097298 8.469492 19.154978 8.524705 12.647240 29.342390 8.354301 9.292459 -1.514610 69.073433 29.826218 55.906555 86.324478 -1.373855 30.506592 -8.534408 -12.637552 19.466656 -36.079826 20.163685 1.591190 34.904957 -5.036214 -5.472246 -18.555071 -0.451116 -2.955225 -7.490029 -14.129271 -10.109345 34.262093 5.058024 5.373104 -32.133961 -10.997323 -4.550679 
27.440945 50.882618 20.385687 -4.143111 11.615502 -122.921135 17.907524 4.268439 -5.686471 -20.935846 0.212525 -2.011918 -15.664204 7.147762 6.580959 25.561111 -14.359173 11.946383 -13.725516 -13.189672 -3.762996 -27.008661 -62.276886 -2.980815 -72.498848 8.788984 18.326258 8.524705 12.647240 28.502550 8.354301 9.292459 -1.514610 69.955978 31.819181 56.277893 86.251595 -1.276055 30.013271 -8.534408 -12.637552 20.150248 -37.312145 20.604305 1.129344 35.649609 -4.987791 -5.562313 -18.325926 -1.282173 -3.229819 -6.951684 -13.529229 -11.817263 34.143921 5.057943 5.353015 -32.938648 -11.064920 -4.887081 
27.665968 50.739624 20.205666 -3.773040 11.979640 -122.023689 17.764498 4.366500 -5.284891 -20.994553 0.347980 -1.915580 -15.840795 7.000551 6.433457 25.409180 -14.113256 11.733713 -13.725516 -13.189672 -3.762996 -24.588919 -63.854340 -5.721290 -70.957985 9.034623 17.557407 8.524705 12.647240 27.281847 8.354301 9.292459 -1.514610 70.805260 33.988731 56.821671 86.179817 -1.280185 29.503279 -8.534408 -12.637552 20.550640 -38.570484 21.228458 0.927636 36.403923 -4.929505 -5.669166 -18.241610 -1.958097 -3.460395 -6.737744 -12.878106 -13.070468 34.272289 5.058069 5.364289 -33.656921 -11.086243 -5.157251 
27.868652 50.578754 20.035223 -3.487113 12.375747 -121.044052 17.470449 4.434678 -4.921187 -20.838301 0.236495 -1.826112 -16.033495 6.992995 6.205386 25.112383 -13.783966 11.444459 -13.725516 -13.189672 -3.762996 -21.932745 -65.420883 -8.405826 -69.550964 9.204020 16.856602 8.524705 12.647240 26.168562 8.354301 9.292459 -1.514610 71.782471 36.381016 57.099171 86.083733 -1.392182 28.946720 -8.534408 -12.637552 20.843609 -39.971169 21.738739 0.713439 37.275200 -4.876303 -5.787180 -18.137774 -2.757520 -3.737954 -6.689215 -12.352165 -14.255473 34.580597 5.038082 5.395771 -34.346127 -10.905787 -5.338183 
28.048353 50.404480 19.872757 -3.393120 12.757030 -120.002815 17.077049 4.172078 -4.577447 -20.770267 0.561435 -1.709967 -16.320669 6.849263 5.955471 25.066879 -13.581102 10.992045 -13.725516 -13.189672 -3.762996 -19.635004 -66.870705 -10.805232 -68.336769 9.313171 16.268808 8.524705 12.647240 24.957626 8.354301 9.292459 -1.514610 72.362381 38.784180 57.331848 85.919342 -1.658952 28.290663 -8.534408 -12.637552 21.908060 -41.489815 21.960735 0.650806 38.376251 -4.793095 -5.886662 -18.120714 -3.600281 -4.020336 -6.863214 -12.052431 -15.245214 35.056637 5.009379 5.467672 -35.052547 -10.759334 -5.545725 
28.177622 50.237869 19.698164 -3.085951 12.981340 -119.063721 16.865246 4.042719 -4.136615 -20.790009 0.786088 -1.574440 -16.448849 6.610037 5.739403 25.031904 -13.194718 10.594758 -13.725516 -13.189672 -3.762996 -17.779491 -67.868660 -12.392439 -67.501244 9.372275 15.874075 8.524705 12.647240 23.580671 8.354301 9.292459 -1.514610 73.035789 41.066917 57.460018 85.649025 -2.080502 27.601181 -8.534408 -12.637552 22.835796 -42.680904 22.360977 0.719070 39.564602 -4.695705 -6.026449 -18.233458 -4.429775 -4.314085 -6.766243 -11.537411 -15.891282 35.503223 4.979965 5.527633 -35.788845 -10.606133 -5.751276 
28.204754 50.095192 19.512714 -2.285943 12.849967 -118.150444 17.143032 4.254268 -3.468655 -20.965851 0.870340 -1.421260 -16.633314 6.273558 5.517554 25.394938 -12.487383 10.158223 -13.725516 -13.189672 -3.762996 -16.589096 -68.420105 -13.023730 -67.152290 9.393742 15.708238 8.524705 12.647240 22.369738 8.354301 9.292459 -1.514610 73.541832 42.857132 57.205582 85.301498 -2.552655 26.972559 -8.534408 -12.637552 23.480328 -43.147388 23.033468 0.780031 40.630478 -4.627678 -6.173627 -18.386410 -5.257669 -4.622025 -5.917007 -10.659113 -16.290176 35.761299 4.960855 5.563751 -36.489555 -10.578164 -6.030322 
28.107721 49.966557 19.352486 -1.489313 12.461967 -117.119804 17.512337 4.502715 -2.772921 -21.053707 0.811095 -1.256055 -16.880562 5.983878 5.197337 25.836483 -11.826421 9.538861 -13.725516 -13.189672 -3.762996 -15.520676 -69.049400 -13.768666 -67.055092 9.394873 15.659458 8.524705 12.647240 21.207626 8.354301 9.292459 -1.514610 73.808121 44.331142 56.578201 84.886398 -3.043151 26.396793 -8.534408 -12.637552 24.154156 -43.120964 23.318100 0.775290 41.550953 -4.533598 -6.278572 -18.781139 -5.951439 -4.885533 -4.726315 -9.996955 -16.730268 35.841751 4.950540 5.558565 -37.199718 -10.794572 -6.442008 
27.949726 49.818775 19.235985 -0.992568 12.168377 -116.030800 17.525360 4.601148 -2.162715 -20.926756 0.775838 -1.107506 -17.298321 5.778566 4.767826 26.360054 -11.361979 8.706378 -13.725516 -13.189672 -3.762996 -14.646533 -69.563629 -14.175458 -67.341858 9.379841 15.787499 8.524705 12.647240 20.377548 8.354301 9.292459 -1.514610 73.852783 45.761238 55.773441 84.394722 -3.551567 25.823132 -8.534408 -12.637552 25.189310 -43.337418 23.182377 0.643943 42.646229 -4.452451 -6.402000 -19.445381 -6.566459 -5.141726 -3.759724 -9.606804 -17.133318 35.851936 4.950570 5.549748 -37.902096 -11.108116 -6.939481 
27.757574 49.665886 19.133205 -0.548475 12.097438 -115.099464 17.314308 4.718567 -1.436435 -21.073370 0.891957 -0.925048 -17.436817 5.661821 4.282154 26.743462 -11.277719 7.670067 -13.725516 -13.189672 -3.762996 -14.758401 -69.367180 -13.121198 -68.264336 9.322465 16.241072 8.524705 12.647240 19.967390 8.354301 9.292459 -1.514610 73.841347 46.672291 54.797760 83.890289 -4.013728 25.326290 -8.534408 -12.637552 26.009623 -43.819607 23.169243 0.407468 43.859421 -4.348383 -6.546049 -20.310286 -7.089802 -5.380702 -2.978267 -9.026916 -17.104710 35.732044 4.960793 5.551456 -38.663509 -11.472487 -7.473752 
